<svg width="125" height="22" viewBox="0 0 125 22" fill="none" xmlns="http://www.w3.org/2000/svg">
<path d="M48.2357 21.3361H41.5853V4.94002H32.22V0H57.3011V4.94002H48.2348V21.3361H48.2357Z" fill="#000000"/>
<path d="M87.948 16.3686V21.3361H71.5793H65.0103H64.5486V0H64.8201H71.5793H87.948V4.94002H71.2V8.52345H86.9168V12.8391H71.2V16.3677H87.948V16.3686Z" fill="#000000"/>
<path d="M103.963 21.3361H95.0051L105.347 10.8042L95.3854 0H104.044L109.935 6.59553L115.798 0H124.538L114.468 10.8033L125 21.3351H116.07L110.016 14.9288L103.963 21.3361Z" fill="#000000"/>
<path d="M25.5158 0.000915527V4.408H8.53098V4.62922C8.37466 4.63928 8.22748 4.65116 8.08762 4.66853C7.79875 4.70601 7.52634 4.7828 7.27312 4.89981C7.01899 5.01774 6.81696 5.19234 6.66247 5.42819C6.50981 5.66312 6.43211 5.9721 6.43211 6.35239C6.43211 7.03891 6.67618 7.48958 7.16525 7.70898C7.51902 7.86804 7.97518 7.96768 8.53007 8.00973V8.34888H18.6862C18.7027 8.34888 18.7191 8.35162 18.7356 8.35162H18.7383C19.136 8.36807 19.4943 8.38453 19.8133 8.40098C20.3938 8.42841 20.8728 8.45857 21.2531 8.49605C22.671 8.57284 23.7835 8.96409 24.5961 9.66524C24.2936 9.98428 24.1939 10.4478 24.5459 10.9185C24.6738 11.0931 24.7927 11.2485 24.8996 11.4003C24.5056 12.6837 24.7387 14.4179 24.427 15.4399C24.278 15.9335 24.4462 16.3293 24.7506 16.5789C24.4097 17.4757 24.1692 18.335 24.3777 19.3195L22.7386 20.9586C21.925 21.21 20.9597 21.3352 19.8426 21.3352H0.569702V16.7197H17.0197C17.134 16.7197 17.2464 16.7169 17.3552 16.7151C17.4475 16.7124 17.538 16.7078 17.6276 16.7023C17.7794 16.695 17.9238 16.6831 18.0637 16.6676C18.3004 16.6383 18.5244 16.5908 18.7365 16.5158C18.8087 16.493 18.8782 16.4665 18.9458 16.4363C19.2182 16.3175 19.4349 16.1429 19.5967 15.9052C19.7603 15.6703 19.8408 15.3622 19.8408 14.9828C19.8408 14.5468 19.7274 14.2003 19.5016 13.938C19.3014 13.7048 19.0455 13.5275 18.7365 13.4087C18.699 13.3959 18.6597 13.3812 18.6195 13.3675C18.3004 13.2651 17.9695 13.1957 17.6276 13.1637V12.7605H7.00984C6.95225 12.7578 6.89649 12.756 6.83799 12.7505C6.78496 12.7477 6.73103 12.7459 6.67801 12.7432C6.11673 12.7176 5.6368 12.6856 5.23823 12.6481C3.42549 12.5503 2.07712 12.0009 1.19223 11.0017C1.22514 10.9588 1.2544 10.9112 1.27999 10.86C1.54144 10.3636 1.70598 9.81059 1.78277 9.25662C1.89247 8.45766 1.3193 7.64498 1.45916 6.93469C1.58897 6.26646 2.12283 5.94559 2.04422 5.15211C1.95554 4.26814 1.28182 3.63281 1.1255 2.78814C1.09808 2.64279 1.05237 2.51938 0.992036 2.41517L3.00315 0.404053C3.70156 0.135294 4.538 0.00182945 5.51065 0.00182945H25.5158V0.000915527Z" fill="#000000"/>
<path d="M6.83791 0.000915527V4.98757C5.98319 5.03693 5.65867 5.87703 5.86069 6.53156C5.54897 7.19523 5.85338 8.1697 6.77301 8.22638C6.79494 8.22912 6.81506 8.23095 6.83791 8.23095V12.7605H0.560486V2.8439L0.991047 2.41334C0.991047 2.41334 0.991047 2.41425 0.991961 2.41425L3.00308 0.403139C3.00216 0.403139 3.00034 0.404053 2.99942 0.404053L3.40256 0.000915527H6.83791Z" fill="#000000"/>
<path d="M8.53097 4.53421H4.83789V8.22729H8.53097V4.53421Z" fill="#000000"/>
<path d="M25.311 8.35254V18.4072L24.3804 19.3378C24.3795 19.3314 24.3777 19.3259 24.3768 19.3195L22.7377 20.9586C22.7487 20.9549 22.7578 20.9522 22.7688 20.9485L22.3839 21.3352H18.7365V8.35254H25.311Z" fill="#000000"/>
<path d="M17.6275 13.0421H18.7354H20.1158V16.8815H18.7354H17.6275H17.355V16.7161C17.4483 16.7133 17.5388 16.7088 17.6275 16.7024V13.1656V13.0421Z" fill="#000000"/>
<path d="M17.3551 16.716C17.4483 16.7133 17.5388 16.7087 17.6275 16.7023V17.068H0.56958V16.7215H17.0196C17.1339 16.7206 17.2454 16.7188 17.3551 16.716Z" fill="#000000"/>
<path d="M25.5166 3.96014H8.53088V4.94005H25.5166V3.96014Z" fill="#000000"/>
<path d="M22.7375 20.9595C22.7484 20.9559 22.7576 20.9531 22.7685 20.9495L22.3837 21.3361H22.3608L22.7375 20.9595Z" fill="#000000"/>
<path d="M25.3108 18.3853V18.4072L24.3802 19.3378C24.3793 19.3314 24.3774 19.3259 24.3765 19.3195L25.3108 18.3853Z" fill="#000000"/>
<path d="M23.3575 16.454L20.4319 19.3795L22.3847 21.3323L25.3102 18.4067L23.3575 16.454Z" fill="#000000"/>
</svg>
